<?xml version="1.0" encoding="UTF-8" standalone="no"?>
<!DOCTYPE svg PUBLIC "-//W3C//DTD SVG 1.1//EN" "http://www.w3.org/Graphics/SVG/1.1/DTD/svg11.dtd">
<svg xmlns="http://www.w3.org/2000/svg" xmlns:xlink="http://www.w3.org/1999/xlink" version="1.1" width="2338.5833pt" height="1653.5444pt" viewBox="0 0 2338.5833 1653.5444">
<g enable-background="new">
<g id="Layer-1" data-name="Layer 1">
<clipPath id="cp0">
<path transform="matrix(2.7777777,0,0,-2.7777777,0,1653.5444)" d="M 0 595.276 L 841.89 595.276 L 841.89 0 L 0 0 Z "/>
</clipPath>
<g clip-path="url(#cp0)">
<path transform="matrix(2.7777777,0,0,-2.7777777,1576.8783,773.3981)" d="M 0 0 L -79.342 0 C -79.342 42.903 -44.563 77.683 -1.659 77.683 L 0 77.683 Z " fill="white"/>
<path transform="matrix(2.7777777,0,0,-2.7777777,1602.806,799.3597)" d="M 0 0 L 79.342 0 C 79.342 -42.902 44.563 -77.683 1.659 -77.683 L 0 -77.683 Z " fill="white"/>
<path transform="matrix(2.7777777,0,0,-2.7777777,375.84748,724.1574)" d="M 0 0 C 4.819 0 7.23 1.905 7.23 5.715 C 7.23 9.368 4.819 11.196 0 11.196 L -13.878 11.196 L -13.878 0 Z M -1.983 29.39 C 2.837 29.39 5.248 31.255 5.248 34.987 C 5.248 38.72 2.837 40.586 -1.983 40.586 L -13.878 40.586 L -13.878 29.39 Z M -39.886 59.245 L 4.198 59.245 C 13.916 59.167 21.147 57.438 25.89 54.055 C 30.631 50.673 33.004 45.56 33.004 38.72 C 33.004 33.975 31.546 30.032 28.63 26.882 C 25.715 23.732 21.38 21.769 15.627 20.992 L 15.627 20.875 C 22.158 20.176 27.017 18.231 30.206 15.044 C 33.393 11.857 34.987 7.697 34.987 2.565 C 34.987 -4.199 32.692 -9.271 28.106 -12.653 C 23.518 -16.035 16.56 -17.727 7.23 -17.727 L -39.886 -17.727 Z " fill="white"/>
<path transform="matrix(2.7777777,0,0,-2.7777777,674.5319,718.0011)" d="M 0 0 L 0 -19.943 L -65.31 -19.943 L -65.31 57.029 L -1.399 57.029 L -1.399 37.086 L -38.136 37.086 L -38.136 27.522 L -8.514 27.522 L -8.514 9.096 L -38.136 9.096 L -38.136 0 Z " fill="white"/>
<path transform="matrix(2.7777777,0,0,-2.7777777,842.9836,563.80056)" d="M 0 0 C 5.365 -1.789 10.689 -4.976 15.978 -9.563 L 4.083 -26.473 C .583 -23.207 -2.973 -20.857 -6.589 -19.417 C -10.204 -17.979 -14.228 -17.259 -18.659 -17.259 C -21.382 -17.259 -23.557 -17.668 -25.19 -18.485 C -26.823 -19.301 -27.64 -20.371 -27.64 -21.69 C -27.64 -22.548 -26.864 -23.207 -25.307 -23.674 C -23.752 -24.14 -21.032 -24.724 -17.144 -25.424 C -5.871 -27.445 2.234 -30.498 7.173 -34.578 C 12.109 -38.66 14.579 -44.395 14.579 -51.781 C 14.579 -57.068 13.062 -61.577 10.03 -65.308 C 6.998 -69.042 2.875 -71.861 -2.332 -73.764 C -7.542 -75.669 -13.373 -76.621 -19.826 -76.621 C -28.922 -76.621 -36.193 -75.765 -41.634 -74.055 C -47.078 -72.347 -52.404 -69.586 -57.611 -65.775 L -45.95 -47.349 C -42.684 -50.538 -39.109 -52.888 -35.22 -54.405 C -31.333 -55.921 -26.864 -56.68 -21.808 -56.68 C -16.134 -56.68 -13.295 -55.512 -13.295 -53.181 C -13.295 -51.937 -14.189 -51.003 -15.977 -50.38 C -17.767 -49.759 -20.682 -49.098 -24.724 -48.398 C -30.633 -47.31 -35.668 -46.065 -39.827 -44.667 C -43.986 -43.267 -47.641 -40.896 -50.79 -37.553 C -53.938 -34.21 -55.513 -29.623 -55.513 -23.791 C -55.513 -18.505 -54.113 -13.878 -51.314 -9.913 C -48.516 -5.946 -44.415 -2.857 -39.01 -.64 C -33.607 1.575 -27.096 2.682 -19.476 2.682 C -11.857 2.682 -5.364 1.789 0 0 " fill="white"/>
<path transform="matrix(2.7777777,0,0,-2.7777777,1114.7825,559.58779)" d="M 0 0 L 0 -76.972 L -27.173 -76.972 L -27.173 -48.282 L -48.282 -48.282 L -48.282 -76.972 L -75.456 -76.972 L -75.456 0 L -48.282 0 L -48.282 -28.339 L -27.173 -28.339 L -27.173 0 Z " fill="white"/>
<path transform="matrix(2.7777777,0,0,-2.7777777,1249.2228,776.63558)" d="M 0 0 C -8.087 0 -15.064 1.554 -20.935 4.664 C -26.806 7.772 -31.313 12.304 -34.462 18.252 C -37.611 24.198 -39.186 31.331 -39.186 39.651 C -39.186 47.97 -37.611 55.104 -34.462 61.053 C -31.313 66.999 -26.806 71.528 -20.935 74.639 C -15.064 77.747 -8.087 79.303 0 79.303 C 9.019 79.303 16.715 77.379 23.091 73.531 C 29.465 69.681 33.431 63.831 34.986 55.979 L 11.662 46.881 C 11.039 51.623 9.913 54.812 8.28 56.445 C 6.647 58.078 4.12 58.895 .7 58.895 C -3.345 58.895 -6.377 57.338 -8.397 54.23 C -10.42 51.118 -11.43 46.258 -11.43 39.651 C -11.43 33.042 -10.458 28.183 -8.514 25.073 C -6.57 21.962 -3.577 20.409 .466 20.409 C 4.12 20.409 6.765 21.225 8.397 22.858 C 10.029 24.491 11.079 27.173 11.546 30.905 L 35.57 24.724 C 31.604 8.24 19.747 0 0 0 " fill="white"/>
<path transform="matrix(2.7777777,0,0,-2.7777777,1676.6665,652.8847)" d="M 0 0 L 9.68 0 C 13.1 0 15.53 .524 16.97 1.573 C 18.405 2.624 19.126 4.469 19.126 7.114 C 19.126 9.68 18.405 11.504 16.97 12.595 C 15.53 13.683 13.1 14.228 9.68 14.228 L 0 14.228 Z M 7.465 -17.845 L 0 -17.845 L 0 -43.385 L -26.59 -43.385 L -26.59 33.587 L 15.16 33.587 C 25.424 33.587 33.18 31.43 38.428 27.115 C 43.676 22.8 46.3 16.366 46.3 7.814 C 46.3 -3.461 41.673 -11.042 32.421 -14.928 L 50.615 -43.385 L 21.108 -43.385 Z " fill="white"/>
<path transform="matrix(2.7777777,0,0,-2.7777777,1978.262,563.80056)" d="M 0 0 C 5.364 -1.789 10.689 -4.976 15.979 -9.563 L 4.083 -26.473 C .584 -23.207 -2.973 -20.857 -6.588 -19.417 C -10.203 -17.979 -14.228 -17.259 -18.659 -17.259 C -21.383 -17.259 -23.558 -17.668 -25.191 -18.485 C -26.822 -19.301 -27.639 -20.371 -27.639 -21.69 C -27.639 -22.548 -26.863 -23.207 -25.308 -23.674 C -23.753 -24.14 -21.031 -24.724 -17.143 -25.424 C -5.871 -27.445 2.233 -30.498 7.172 -34.578 C 12.108 -38.66 14.579 -44.395 14.579 -51.781 C 14.579 -57.068 13.063 -61.577 10.031 -65.308 C 6.998 -69.042 2.876 -71.861 -2.331 -73.764 C -7.542 -75.669 -13.373 -76.621 -19.824 -76.621 C -28.923 -76.621 -36.192 -75.765 -41.634 -74.055 C -47.077 -72.347 -52.403 -69.586 -57.612 -65.775 L -45.948 -47.349 C -42.685 -50.538 -39.108 -52.888 -35.22 -54.405 C -31.332 -55.921 -26.863 -56.68 -21.809 -56.68 C -16.135 -56.68 -13.295 -55.512 -13.295 -53.181 C -13.295 -51.937 -14.189 -51.003 -15.977 -50.38 C -17.766 -49.759 -20.683 -49.098 -24.724 -48.398 C -30.633 -47.31 -35.668 -46.065 -39.826 -44.667 C -43.987 -43.267 -47.64 -40.896 -50.789 -37.553 C -53.938 -34.21 -55.512 -29.623 -55.512 -23.791 C -55.512 -18.505 -54.113 -13.878 -51.313 -9.913 C -48.515 -5.946 -44.415 -2.857 -39.01 -.64 C -33.607 1.575 -27.096 2.682 -19.476 2.682 C -11.856 2.682 -5.364 1.789 0 0 " fill="white"/>
</g>
</g>
</g>
</svg>
